<svg width="1600" height="900" viewBox="0 0 1600 900" xmlns="http://www.w3.org/2000/svg" role="img" aria-label="airspace background">
  <defs>
    <linearGradient id="bg" x1="0" y1="0" x2="1" y2="1">
      <stop offset="0%" stop-color="#0f89c8"/>
      <stop offset="100%" stop-color="#0b5ea8"/>
    </linearGradient>
    <radialGradient id="glow" cx="50%" cy="45%" r="45%">
      <stop offset="0%" stop-color="#b9f4ff" stop-opacity="0.8"/>
      <stop offset="100%" stop-color="#b9f4ff" stop-opacity="0"/>
    </radialGradient>
  </defs>

  <rect width="1600" height="900" fill="url(#bg)"/>
  <circle cx="800" cy="430" r="360" fill="url(#glow)"/>

  <g opacity="0.35" stroke="#b7f0ff" fill="none">
    <circle cx="800" cy="430" r="260" stroke-width="2"/>
    <circle cx="800" cy="430" r="210" stroke-width="1.5"/>
    <circle cx="800" cy="430" r="160" stroke-width="1.2"/>
    <path d="M540 430H1060" stroke-width="1.5"/>
    <path d="M800 170V690" stroke-width="1.5"/>
  </g>

  <g opacity="0.22" stroke="#99e8ff" fill="none" stroke-width="2">
    <path d="M170 230 L340 150 L430 220"/>
    <path d="M1170 250 L1320 170 L1450 260"/>
    <path d="M220 700 L370 630 L460 710"/>
    <path d="M1130 710 L1290 610 L1420 700"/>
  </g>

  <g transform="translate(800 440)" fill="#e6fbff" stroke="#ffffff" stroke-opacity="0.6">
    <path d="M0 -300 L38 -40 L170 -20 L180 8 L38 20 L15 220 L45 278 L45 300 L0 265 L-45 300 L-45 278 L-15 220 L-38 20 L-180 8 L-170 -20 L-38 -40 Z" stroke-width="1.2"/>
  </g>
</svg>
