<svg width="1920" height="1080" viewBox="0 0 1920 1080" xmlns="http://www.w3.org/2000/svg" role="img" aria-label="Cinematic pilot cockpit sunset view">
  <defs>
    <linearGradient id="sky" x1="0" y1="0" x2="0" y2="1">
      <stop offset="0%" stop-color="#25133f"/>
      <stop offset="30%" stop-color="#5b1f68"/>
      <stop offset="60%" stop-color="#c33d74"/>
      <stop offset="100%" stop-color="#ff9854"/>
    </linearGradient>
    <radialGradient id="sunGlow" cx="0.52" cy="0.45" r="0.55">
      <stop offset="0%" stop-color="#ffd497" stop-opacity="0.9"/>
      <stop offset="100%" stop-color="#ffd78a" stop-opacity="0"/>
    </radialGradient>
    <linearGradient id="cloudDeck" x1="0" y1="0" x2="0" y2="1">
      <stop offset="0%" stop-color="#ffd6d4"/>
      <stop offset="45%" stop-color="#d587b4"/>
      <stop offset="100%" stop-color="#6e4f84"/>
    </linearGradient>
    <linearGradient id="cockpitDark" x1="0" y1="0" x2="0" y2="1">
      <stop offset="0%" stop-color="#0f0b1f"/>
      <stop offset="100%" stop-color="#02040a"/>
    </linearGradient>
    <filter id="softBlur" x="-20%" y="-20%" width="140%" height="140%">
      <feGaussianBlur stdDeviation="10"/>
    </filter>
  </defs>

  <rect width="1920" height="1080" fill="url(#sky)"/>
  <rect width="1920" height="1080" fill="url(#sunGlow)"/>

  <ellipse cx="960" cy="552" rx="1320" ry="155" fill="#ffb873" opacity="0.35" filter="url(#softBlur)"/>
  <path d="M0 580 C260 530 520 535 820 552 C1120 568 1450 558 1920 510 L1920 1080 L0 1080 Z" fill="url(#cloudDeck)" opacity="0.82"/>
  <path d="M0 650 C330 618 670 624 980 642 C1300 658 1590 648 1920 615 L1920 1080 L0 1080 Z" fill="#4b3565" opacity="0.6"/>

  <path d="M0 0 L540 0 L620 268 L526 330 L420 210 L0 178 Z" fill="url(#cockpitDark)" opacity="0.9"/>
  <path d="M1920 0 L1380 0 L1300 268 L1394 330 L1500 210 L1920 178 Z" fill="url(#cockpitDark)" opacity="0.9"/>

  <path d="M742 0 L1178 0 L1134 192 L786 192 Z" fill="#180f23" opacity="0.97"/>
  <g opacity="0.46" fill="#ffb766">
    <rect x="808" y="34" width="42" height="12" rx="2"/>
    <rect x="858" y="34" width="32" height="12" rx="2"/>
    <rect x="898" y="34" width="44" height="12" rx="2"/>
    <rect x="954" y="34" width="28" height="12" rx="2"/>
    <rect x="990" y="34" width="46" height="12" rx="2"/>
    <rect x="1044" y="34" width="38" height="12" rx="2"/>
  </g>

  <path d="M0 1080 L0 760 L280 694 L520 748 L960 824 L1400 748 L1640 694 L1920 760 L1920 1080 Z" fill="#02040b" opacity="0.96"/>

  <rect x="700" y="746" width="520" height="252" rx="22" fill="#070b16" opacity="0.97"/>
  <rect x="740" y="786" width="442" height="40" rx="8" fill="#1d2435"/>
  <rect x="740" y="842" width="206" height="138" rx="12" fill="#111827"/>
  <rect x="974" y="842" width="206" height="138" rx="12" fill="#111827"/>

  <rect x="760" y="860" width="166" height="26" rx="6" fill="#00c2ff" opacity="0.34"/>
  <rect x="760" y="896" width="166" height="18" rx="6" fill="#22d3ee" opacity="0.28"/>
  <rect x="994" y="860" width="166" height="26" rx="6" fill="#9eff57" opacity="0.28"/>
  <rect x="994" y="896" width="166" height="18" rx="6" fill="#f59e0b" opacity="0.28"/>

  <ellipse cx="960" cy="448" rx="760" ry="62" fill="#ffcf96" opacity="0.2"/>
  <ellipse cx="960" cy="430" rx="670" ry="40" fill="#ffe4be" opacity="0.16"/>
</svg>
